<svg xmlns="http://www.w3.org/2000/svg" version="1.1" xmlns:xlink="http://www.w3.org/1999/xlink" xmlns:svgjs="http://svgjs.dev/svgjs" viewBox="0 0 800 800"><defs><linearGradient x1="50%" y1="0%" x2="50%" y2="100%" id="wwwhirl-grad"><stop stop-color="hsl(206, 75%, 49%)" stop-opacity="1" offset="45%"></stop><stop stop-color="hsl(331, 90%, 56%)" stop-opacity="1" offset="100%"></stop></linearGradient></defs><g stroke-width="2" stroke="url(#wwwhirl-grad)" fill="none" stroke-linecap="round"><path d="M-155.00006481517434 445.44450241113884C-133.97733695920823 418.640524394782 -96.13642681846916 308.2712031509598 -54.09097110653693 316.78540793262613C-12.045515394604678 325.2996127142924 4.772666890168239 486.94336719881596 46.818122602100516 486.312685363137C88.86357831403268 485.68200352745805 105.68176059880568 317.5422261354409 147.7272163107379 313.758135121367C189.77267202267018 309.9740441072931 206.59085430744312 455.22007086416306 248.6363100193754 468.1490484955823C290.6817657313077 481.0780261270014 307.49994801608045 382.12404610896886 349.54540372801273 375.817227752179C391.5908594399449 369.51040939538916 408.4090417247179 434.0922293689171 450.4544974366502 437.876320382991C492.49995314858245 441.66041139706493 509.31813543335534 384.2052961667095 551.3635911452876 393.9808646197338C593.4090468572197 403.756433072758 610.2272291419927 496.15132199972913 652.2726848539249 484.79904895750747C694.3181405658572 473.44677591528574 711.1363228506302 348.00415879873583 753.1817785625625 339.4899540170695C795.2272342744948 330.97574923540327 812.0454165592676 442.6695023341513 854.0908722711997 443.9308660055093C896.1363279831319 445.19222967686727 933.9772381238708 366.0416592991548 954.9999659798373 345.5444996395878 " transform="rotate(111, 400, 400)"></path><path d="M-140.000057289817 444.21625735745414C-119.54551126779592 418.13671117937724 -82.72732842815793 310.7503445637665 -41.81823638411572 319.034435702685C-0.909144340073567 327.31852684160356 15.454492477543312 484.5935312049238 56.363584521585494 483.97989482426317C97.2726765656277 483.36625844360253 113.63631338324461 319.7707993594778 154.54540542728682 316.08898107551397C195.45449747132898 312.40716279155015 211.81813428894594 453.72762125769395 252.7272263329881 466.3071670612369C293.6363183770303 478.88671286477984 309.9999551946471 382.6071647391266 350.90904723868925 376.47080093252026C391.8181392827315 370.3344371259139 408.18177610034843 433.17080250556273 449.0908681443906 436.85262078952655C489.99996018843274 440.5344390734903 506.36359700604976 384.63216479530666 547.2726890500919 394.1435286955465C588.1817810941341 403.6548925957863 604.5454179117509 493.552622362569 645.4545099557931 482.5071675106776C686.3636019998353 471.4617126587862 702.7272388174522 349.4094365453863 743.6363308614946 341.1253454064678C784.5454229055367 332.84125426754923 800.9090597231536 441.5162572825473 841.8181517671956 442.74353004386865C882.7272438112377 443.9708028051899 919.5454266508757 366.95943703228045 939.9999726728968 347.01625466080986 " transform="rotate(108, 400, 400)"></path><path d="M-125.0000573938542 442.98801993316397C-105.11369320577815 417.63290559336696 -69.3182376672412 313.2294936059676 -29.545509291089076 321.28347110213844C10.227219085063041 329.3374485983092 26.13631043552391 482.24370284042607 65.90903881167606 481.6471119147838C105.68176718782814 481.05052098914155 121.59085853828907 321.99938021290916 161.36358691444116 318.4198346590555C201.1363152905933 314.84028910520175 217.04540664105417 452.2351792806194 256.8181350172063 464.46529325628615C296.5908633933584 476.6954072319529 312.4999547438192 383.0902909986788 352.27268311997136 377.124381742256C392.0454114961235 371.1584724858332 407.95450284658443 432.2493832716029 447.72723122273646 435.82892882545656C487.4999595988886 439.4084743793103 503.40905094934953 385.05904105329836 543.1817793255017 394.3062004007537C582.9545077016537 403.5533597482091 598.8635990521145 490.95393035480345 638.6363274282668 480.21529369324236C678.4090558044189 469.47665703168127 694.3181471548797 350.8147219214314 734.090875531032 342.76074442526055C773.863603907184 334.7067669290898 789.7726952576451 440.3630198603379 829.545423633797 441.55620171162246C869.318152009949 442.74938356290704 905.113607548486 367.87722239480064 924.999971736562 348.48801731142646 " transform="rotate(105, 400, 400)"></path><path d="M-110.00002698031328 441.75979776766286C-90.68184462618225 417.12911526614573 -55.909116388746355 315.7086579069578 -17.272751680484305 323.53252176038086C21.363613027777774 331.356385613804 36.81815891108258 479.8938897347175 75.45452361934466 479.3143442640936C114.0908883276067 478.7347987934696 129.5454342109116 324.2279763251296 168.18179891917367 320.750703501386C206.8181636274357 317.2734306776424 222.27270951074058 450.74275256233375 260.90907421900266 462.62343471012434C299.54543892726474 474.50411685791494 314.9999848105695 383.57343251702014 353.6363495188316 377.77797781078084C392.2727142270936 371.98252310454154 407.72726011039845 431.3279792964321 446.3636248186606 434.8052521201757C484.9999895269227 438.28252494391927 500.45453541022744 385.4859325700791 539.0909001184896 394.46888736475006C577.7272648267516 403.451842159421 593.1818107100563 488.3552536058269 631.8181754183184 477.92343513459616C670.4545401265806 467.4916166633654 685.9090860098855 352.22002255626546 724.5454507181477 344.3961587028424C763.1818154264097 336.57229484941934 778.6363613097144 439.2097976969175 817.2727260179764 440.3688886381654C855.9090907262384 441.5279795794133 890.6818189636742 368.7950230161099 910.0000013178055 349.9597952208321 " transform="rotate(102, 400, 400)"></path><path d="M-95.00002708435048 440.5315679727672C-76.25002656416449 416.62531730953003 -42.50002562782966 318.1878145785535 -5.000024587457631 325.7815647892288C32.499976452914325 333.37531499990416 47.49997686906315 477.54406899961435 84.99997790943516 476.9815689840088C122.4999789498072 476.4190689684032 137.49997936595605 326.45656480795554 174.999980406328 323.08156471432204C212.49998144670002 319.7065646206886 227.49998186284887 449.2503182146537 264.9999829032209 460.7815685345681C302.4999839435929 472.31281885448243 317.49998435974163 384.0565664059669 354.9999854001137 378.43156624991116C392.4999864404856 372.80656609385534 407.49998685663445 430.40656769186677 444.99998789700646 433.7815677855002C482.4999889373785 437.1565678791337 497.4999893535273 385.91281645746534 534.9999903938993 394.6315666993519C572.4999914342714 403.35031694123836 587.49999185042 485.7565692274558 624.9999928907921 475.6315689465554C662.4999939311641 465.506568665655 677.499994347313 353.62531556170507 714.9999953876851 346.0315653510297C752.4999964280571 338.43781514035436 767.499996844206 438.0565679041026 804.9999978845777 439.1815679353138C842.4999989249498 440.306567966525 876.2499998612846 369.7128160080247 895.0000003814707 351.4315655008433 " transform="rotate(99, 400, 400)"></path><path d="M-80.00002718838769 439.30334580726606C-61.81820850214672 416.12152698230886 -29.09093486691293 320.6669788795437 7.2727025055689865 328.0306154474713C43.63633987805093 335.39425201539893 58.18179482704372 475.19425589390573 94.54543219952566 474.6488013333185C130.90906957200764 474.1033467727313 145.45452452100045 328.685160920176 181.8181618934824 325.4124335566526C218.18179926596434 322.1397061931292 232.7272542149571 447.75789149636813 269.09089158743905 458.9397099884063C305.454528959921 470.1215284804445 319.99998390891375 384.53970792430823 356.3636212813957 379.08516231843595C392.7272586538777 373.63061671256366 407.27271360287045 429.485163716696 443.63635097535234 432.75789108021934C479.99998834783435 436.0306184437427 494.5454432968272 386.3397079742461 530.9090806693091 394.7942536633482C567.272718041791 403.2487993524502 581.8181729907836 483.1578924784793 618.1818103632658 473.3397103879092C654.5454477357478 463.52152829733905 669.0909026847405 355.03061619653914 705.4545400572226 347.66697962861156C741.8181774297045 340.30334306068397 756.3636323786974 436.90334574068225 792.727269751179 437.99425486185675C829.0909071236609 439.0851639830312 861.8181807588948 370.63061662933393 879.9999994451359 352.90334341024897 " transform="rotate(96, 400, 400)"></path><path d="M-64.99999677484676 438.07507786539776C-47.386359922550824 415.61769087872045 -15.681813588418109 323.1460974041667 19.545460116173786 330.2796203293466C54.772733820765666 337.41314325452646 68.86364330260241 472.84439701183 104.09091700719429 472.31598790626106C139.3181907117862 471.78757880069224 153.40910019362298 330.9137112560293 188.63637389821486 327.74325662261595C223.86364760280674 324.57280198920273 237.95455708464357 446.2654190017154 273.1818307892354 457.0978056658774C308.40910449382733 467.9301923300394 322.50001397566405 385.02280366628236 357.72728768025587 379.7387126105936C392.9545613848477 374.4546215549048 407.0454708666846 428.56371396515794 442.27274457127646 431.7341685985712C477.50001827586834 434.9046232319845 491.5909277577051 386.76655371465966 526.818201462297 394.9568948509773C562.0454751668889 403.14723598729495 576.1363846487255 480.5591699531356 611.3636583533175 471.0478060528958C646.5909320579094 461.536442152656 660.6818415397462 356.4358710550061 695.9091152443382 349.3023481298262C731.1363889489302 342.16882520464634 745.2272984307667 435.7500778008947 780.4545721353586 436.8068960120325C815.6818458399504 437.86371422317023 847.3863921740831 371.548371474276 865.0000290263791 354.37507554328744 " transform="rotate(93, 400, 400)"></path><path d="M-49.99999687888396 436.8468938468693C-32.954541860533055 415.1139386984719 -2.272722827501383 325.6252998521296 31.81818720920043 332.5287091345617C65.90909724590225 339.43211841699383 79.54546126058298 470.494622053094 113.6363712972848 469.98325840254347C147.72728133398664 469.471894751993 161.36364534866743 333.14234551522236 195.4545553853692 330.0741636119192C229.545465422071 327.00598170861605 243.1818294367518 444.7730304304025 277.2727394734536 455.2559852666883C311.3636495101554 465.7389401029741 325.00001352483616 385.5059833315964 359.090923561538 380.3923468260911C393.1818335982398 375.2787103205858 406.8181976129206 427.6423481369598 440.90910764962234 430.710530040263C475.0000176863242 433.7787119435661 488.636381701005 387.1934833784131 522.7272917377068 395.1196199619463C556.8182017744085 403.04575654547943 570.4545657890892 477.96053135113175 604.5454758257911 468.7559856412222C638.6363858624931 459.55143993131276 652.2727498771736 357.8412098368128 686.3636599138757 350.9378005543807C720.4545699505775 344.0343912719486 734.0909339652583 434.596893784447 768.1818440019599 435.61962108554803C802.2727540386617 436.64234838664913 832.9545730716934 372.4662102425579 850.0000280900442 355.84689159966575 " transform="rotate(90, 400, 400)"></path><path d="M-34.99999698292116 435.61866405197367C-18.522723798515287 414.6101407418562 11.136367933415329 328.1044565237253 44.09091430222708 334.7777521634097C77.04546067103882 341.45104780309407 90.22727921856355 468.14480131799087 123.1818255873753 467.6504831224587C156.13637195618708 467.1561649269265 169.31819050371178 335.37093399804826 202.27273687252358 332.4050248248552C235.22728324133533 329.4391156516622 248.40910178886008 443.2805960827224 281.36364815767183 453.414119091132C314.3181945264836 463.54764209954163 327.5000130740082 385.98911722054316 360.45455944282 381.0459352652214C393.40910581163183 376.10275330989964 406.59092435915653 426.7209365323945 439.5454707279682 429.68684570558753C472.5000170967801 432.6527548787806 485.6818356443048 387.62036726579936 518.6363820131166 395.28229929654805C551.5909283819283 402.9442313272968 564.772746929453 475.36184697276065 597.7272932982647 466.4641194531815C630.6818396670766 457.5663919336023 643.8636582146013 359.2465028422524 676.818204583413 352.573207202568C709.7727509522249 345.89991156288363 722.9545694997495 433.4436639916321 755.9091158685612 434.43230038269644C788.863662237373 435.4209367737608 818.5227539693035 373.38400323447263 835.0000271537094 357.31866187967694 " transform="rotate(87, 400, 400)"></path><path d="M-19.99999708695836 434.3904266276835C-4.090905736497518 414.1063351558459 24.54545869433204 330.5836055659264 56.36364139525375 337.0267875628631C88.18182409617543 343.4699695597997 100.90909717654412 465.79497295349324 132.7272798774658 465.3177002129794C164.5454625783875 464.84042747246554 177.27273565875623 337.5995148514797 209.09091835967797 334.73587840839673C240.90910106059965 331.8722419653138 253.63637414096837 441.7881541056478 285.45455684189005 451.5722452861812C317.2727395428118 461.35633646671465 330.0000126231804 386.4722434800954 361.8181953241021 381.69951607495716C393.63637802502376 376.9267886698189 406.36365110539253 425.79951729843464 438.1818338063142 428.6631537415176C470.00001650723596 431.52679018460054 482.7272895876047 388.04724352379105 514.5454722885264 395.44497100175533C546.3636549894479 402.8426984797196 559.0909280698166 472.76315496499507 590.9091107707384 464.1722456357462C622.7272934716601 455.58133630649735 635.4545665520288 360.65178821829744 667.2727492529506 354.2086062213608C699.0909319538724 347.7654242244241 711.8182050342409 432.29042656942266 743.6363877351625 433.2449720504503C775.4545704360842 434.19951753147797 804.0909348669137 374.3017885969929 820.0000262173746 358.79042453029354 " transform="rotate(84, 400, 400)"></path><path d="M-4.999997190995572 433.16218538869606C10.34091232552025 413.6025257551384 37.95454945524875 333.0627507934303 68.63636848828037 339.27581914761925C99.31818752131204 345.4888875018081 111.59091513452466 463.4451407742983 142.27273416755634 462.9849134888028C172.95455320058798 462.52468620330734 185.2272808138007 339.8280918902138 215.9090998468323 337.0667281772409C246.59091887986392 334.3053644642681 258.8636464930766 440.29570831387593 289.5454655261083 449.73036766653314C320.2272845591399 459.16502701919035 332.5000121723525 386.9553659249504 363.1818312053842 382.3530930699957C393.8636502384158 377.7508202150409 406.1363778516285 424.8780942497775 436.8181968846601 427.6394579627504C467.5000159176918 430.40082167572325 479.77274353090456 388.4741159670855 510.4545625639362 395.6076388922653C541.1363815969677 402.7411618174452 553.4091092101803 470.1644591425322 584.090928243212 461.8803680036137C614.7727472762438 453.59627686469514 627.0454748894563 362.05706977964525 657.727293922488 355.8440014254563C688.4091129555197 349.6309330712674 700.6818405687324 431.13718533251597 731.3636596017639 432.0576399035069C762.0454786347956 432.9780944744979 789.659115764524 375.2195701448158 805.0000252810398 360.26218336621287 " transform="rotate(81, 400, 400)"></path><path d="M10.00000270496723 431.93399755547034C24.77273038753802 413.09876976019257 51.363640216165464 335.5419494266959 80.90909558130704 341.5249041381371C110.45455094644862 347.50785884957827 122.27273309250526 461.09536200086507 151.81818845764684 460.65218017038796C181.3636438227884 460.20899833991086 193.18182596884506 342.05672233470966 222.72728133398664 339.3976313518469C252.27273669912825 336.73854036898416 264.0909188451849 438.80331592786575 293.6363742103265 447.8885434526468C323.18182957546804 456.9737709774278 335.0000117215247 387.4385417755671 364.54546708666624 383.00672347079586C394.09092245180784 378.5749051660246 405.9091045978645 423.9567246068821 435.45455996300603 426.61581558974484C465.0000153281476 429.2749065726076 476.8181974742042 388.9010418161416 506.36365283934583 395.77036018853704C535.9091082044873 402.63967856093245 547.7272903505441 467.5658167258311 577.2727457156857 459.5885437772429C606.8182010808273 451.6112708286546 618.6363832268839 363.4624047467547 648.1818385920255 357.47945003531356C677.7272939571671 351.49649532387235 689.5454761032238 429.983997501371 719.0909314683653 430.87036116232525C748.6363868335068 431.7567248232795 775.2272966621342 376.13740509840045 790.000024344705 361.7339956078939 " transform="rotate(78, 400, 400)"></path><path d="M25.00000260093003 430.7057372429966C39.20454844955579 412.59494128599874 64.77273097708218 338.0210755807135 93.18182267433369 343.7739166494069C121.5909143715852 349.5267577181003 132.9545510504858 458.74551074818385 161.36364274773734 458.31937437272506C189.77273444498886 457.8932379972663 201.1363711238895 344.28528029995744 229.54546282114097 341.7284620472048C257.95455451839257 339.17164379445217 269.3181911972931 437.3108510626075 297.7272828945447 446.0466467595124C326.1363745917962 454.78244245641724 337.50001127069675 387.92164514693576 365.9091029679483 383.66028139234805C394.3181946651998 379.3989176377603 405.6818313441005 423.0352824847387 434.09092304135197 425.5921007374913C462.50001473860345 428.14891899024394 473.8636514175041 389.3278951859497 502.2727431147556 395.93300900556073C530.6818348120071 402.5381228251717 542.0454714909077 464.9671018298819 570.4545631881592 457.29664707162397C598.8636548854108 449.62619231336606 610.2272915643114 364.86766723461614 638.636383261563 359.11482616592275C667.0454749588146 353.3619850972293 678.4091116377151 428.83073719097797 706.8182033349666 429.68300994189553C735.2272950322181 430.5352826928131 760.7954775597445 377.05516757273705 775.0000234083702 363.2057353703269 " transform="rotate(75, 400, 400)"></path><path d="M40.00000249689283 429.47752270689C53.636366511573556 412.09115858817205 78.18182173799889 340.5002475110982 105.45454976736033 346.0229749370439C132.7272777967218 351.54570236298963 143.63636900846637 456.39570527186976 170.90909703782785 455.98661435142935C198.1818250671893 455.5775234309889 209.09091627893392 346.5138840415724 236.36364430829536 344.0593385189299C263.6363723376568 341.60479299628736 274.54546354940146 435.81843197371654 301.8181915787629 444.20479584274517C329.09091960812435 452.5911597117738 340.0000108198689 388.4047942946716 367.2727388492304 384.3138850902674C394.5454668785918 380.2229758858632 405.45455809033643 422.1138861389624 432.72728611969785 424.5684316616049C460.0000141490593 427.02297718424745 470.909105360804 389.754794332125 498.18183339016537 396.09570359895156C525.4545614195268 402.4366128657781 536.3636526312714 462.36843271029994 563.6363806606329 455.0047961423723C590.9091086899945 447.6411595744447 601.8181999017389 366.2729754988448 629.0909279311005 360.7502480728991C656.363655960462 355.2275206469534 667.2727471722066 427.67752265695214 694.5454752015679 428.495704497833C721.8182032309294 429.3138863387138 746.3636584573547 377.9729758234409 760.0000224720354 364.67752090912717 " transform="rotate(72, 400, 400)"></path><path d="M55.000002392855635 428.24926239441623C68.06818457359132 411.5873301139782 91.5909124989156 342.97937366511576 117.72727686038701 348.2719874483137C143.86364122185842 353.5646012315117 154.31818696644694 454.0458540191885 180.45455132791835 453.65380855376645C206.59091568938973 453.26176308834437 217.04546143397835 348.7424420068202 243.18182579544973 346.39016921428777C269.3181901569211 344.03789642175536 279.7727359015097 434.3259671084583 305.90910026298116 442.36289914961077C332.0454646244525 450.3998311907632 342.50001036904104 388.88789766604026 368.63637473051244 384.96744301181957C394.77273909198385 381.0469883575989 405.22728483657244 421.19244401681897 431.3636491980438 423.54471680935137C457.50001355951525 425.8969896018838 467.95455930410384 390.1816477019331 494.0909236655752 396.2583524159752C520.2272880270465 402.33505713001733 530.6818337716352 459.76971781435077 556.8181981331065 452.71289943675345C582.954562494578 445.6560810591562 593.4091082391666 367.6782379867062 619.5454726006379 362.3856242035083C645.6818369621094 357.0930104203103 656.136382706698 426.5242623465591 682.2727470681692 427.3083532774033C708.4091114296406 428.0924442082474 731.9318393549648 378.8907382977775 745.0000215357006 366.14926067156017 " transform="rotate(69, 400, 400)"></path><path d="M70.00000228881842 427.0210554877042C82.50000263560909 411.08355504554606 105.00000325983231 345.458553224895 130.00000395341365 350.52105336534527C155.00000464699497 355.58355350579546 165.00000492442751 451.696056172269 190.00000561800886 451.3210561618652C215.0000063115902 450.94605615146156 225.00000658902275 350.9710533778297 250.00000728260406 348.7210533154074C275.00000797618543 346.4710532529851 285.000008253618 432.83355564896186 310.0000089471993 440.5210558622381C335.00000964078066 448.20855607551437 345.00000991821315 389.3710544431707 370.0000106117945 385.6210543391335C395.00001130537584 381.87105423509627 405.0000115828084 420.2710553004372 430.0000122763897 422.52105536285956C455.000012969971 424.7710554252819 465.0000132474036 390.60855447750293 490.00001394098496 396.4210546387606C515.0000146345662 402.2335548000183 525.0000149119987 457.17105632416326 550.0000156055801 450.4210561368963C575.0000162991615 443.67105594962936 585.000016576594 369.0835538803294 610.0000172701755 364.02105373987916C635.0000179637568 358.95855359942897 645.0000182411893 425.37105544192775 670.0000189347705 426.1210554627352C695.0000196283519 426.8710554835427 717.5000202525752 379.8085541778758 730.0000205993658 367.6210538397549 " transform="rotate(66, 400, 400)"></path><path d="M85.00000218478122 425.792833322203C96.93182069762686 410.5797647183249 118.40909402074902 347.93771752588526 142.2727310464403 352.77010402358775C166.13636807213157 357.60249052129024 175.68182288240808 449.34624306656036 199.54545990809936 448.98828851117497C223.40909693379064 448.63033395578964 232.95455174406717 353.1996494900502 256.8181887697584 351.051922157738C280.68182579544975 348.90419482542575 290.22728060572626 431.3411289306763 314.09091763141754 438.67919731607634C337.9545546571088 446.0172657014764 347.50000946738527 389.854195961512 371.3636464930766 386.27465040765827C395.2272835187679 382.6951048538046 404.7727383290444 419.3496513252664 428.63637535473566 421.4973786575786C452.50001238042694 423.64510598989085 462.04546719070345 391.0354459942837 485.9091042163947 396.5837416027569C509.772741242086 402.13203721123017 519.3181960523625 454.57237957518674 543.1818330780538 448.1291975782501C567.0454701037452 441.6860155813134 576.5909249140216 370.4888545151635 600.4545619397129 365.656468017461C624.3181989654042 360.8240815197585 633.8636537756807 424.21783327850744 657.727290801372 424.93374238927817C681.5909278270632 425.6496515000489 703.0682011501854 380.72635479918506 715.000019663031 369.09283174916055 " transform="rotate(63, 400, 400)"></path><path d="M100.00000208074403 424.5645958979129C111.36363875964463 410.0759591323146 131.81818478166574 350.4168665680864 154.54545813946694 355.01913942304117C177.27273149726818 359.6214122779959 186.36364084038865 446.9964147020627 209.09091419818986 446.65550560169567C231.81818755599107 446.31459650132865 240.90909689911157 355.4282303434816 263.6363702569128 353.3827757412795C286.3636436147141 351.33732113907735 295.45455295783455 429.84868695360166 318.18182631563576 436.83732351112553C340.90909967343697 443.8259600686494 350.00000901655744 390.33732222106426 372.72728237435865 386.92823121739406C395.45455573215986 383.51914021372386 404.54546507528033 418.42823209130654 427.27273843308154 420.4736866935086C450.0000117908828 422.51914129571077 459.09092113400334 391.4623222522754 481.8181944918045 396.7464133079642C504.54546784960564 402.030504363653 513.6363771927262 451.97368756742117 536.3636505505274 445.8373237608148C559.0909239083287 439.7009599542085 568.1818332514492 371.89413989120857 590.9091066092504 367.2918670362538C613.6363799670517 362.68959418129907 622.7272893101721 423.06459585629796 645.4545626679733 423.74641405703204C668.1818360257744 424.42823225776607 688.6363820477956 381.6441401617053 700.0000187266962 370.5645943997772 " transform="rotate(60, 400, 400)"></path><path d="M115.00000197670683 423.33636228831995C125.7954568216624 409.5721573610016 145.22727554258245 352.89601942498484 166.8181852324936 357.2681786371918C188.40909492240476 361.64033784939886 197.04545879836922 444.64659015226226 218.63636848828037 444.3227265069136C240.2272781781915 443.99886286156493 248.86364205415603 357.6568150116102 270.4545517440672 355.7136331395182C292.0454614339783 353.7704512674262 300.68182530994284 428.3562487912243 322.272734999854 434.995453520872C343.8636446897651 441.6346582505197 352.50000856572956 390.82045229531377 374.0909182556407 387.5818158418271C395.6818279455519 384.3431793883404 404.31819182151634 417.50681667204395 425.9091015114275 419.44999854413595C447.5000112013387 421.39318041622795 456.1363750773031 391.88920232496434 477.72728476721426 396.9090888278687C499.3181944571254 401.928975330773 507.95455833308984 449.3749993743528 529.545468023001 443.5454537580768C551.1363777129122 437.7159081418008 559.7727415888767 373.29942908195085 581.363651278788 368.92726986974384C602.9545609686991 364.55511065753683 611.5909248446635 421.91136224878585 633.1818345345746 422.5590895394832C654.7727442244857 423.2068168301805 674.2045629454058 382.56192933892277 685.0000177903614 372.03636086509107 " transform="rotate(57, 400, 400)"></path><path d="M130.00000187266963 422.10811341993804C140.22727488368017 409.06834033089956 158.63636630349916 355.3751570230942 179.09091232552026 359.5172025925534C199.54545834754134 363.6592481620127 207.7272767563498 442.29675034367284 228.18182277837087 441.9899321533425C248.63636880039198 441.6831139630122 256.81818720920046 359.88538442094983 277.27273323122154 358.0444752789679C297.7272792532426 356.203566136986 305.90909766205107 426.8637953700579 326.36364368407214 433.1535682718294C346.8181897060933 439.44334117360086 355.0000081149017 391.3035671107742 375.45455413692275 388.23538520747104C395.9091001589439 385.1672033041679 404.09091856775234 416.5853859939923 424.5454645897734 418.4262951359742C445.0000106117945 420.2672042779561 453.181829020603 392.31606713886424 473.6363750426241 397.0717490889842C494.09092106464516 401.8274310391041 502.27273947345356 446.7762959224955 522.7272854954747 441.25356849654975C543.1818315174958 435.730841070604 551.3636499263042 374.7047030139041 571.8181959483254 370.5626574444448C592.2727419703465 366.4206118749856 600.4545603791549 420.7581133824846 620.9091064011759 421.37174976314526C641.363652423197 421.9853861438059 659.772743843016 383.47970325735116 670.0000168540265 373.50811207161587 " transform="rotate(54, 400, 400)"></path><path d="M144.99998650984335 420.8798988838314C154.65907768690886 408.56455763307287 172.0454418056268 357.8543289534789 191.36362415975785 361.76626088019043C210.6818065138889 365.67819280690196 218.4090794555413 439.94694486735875 237.7272618096723 439.6571721320468C257.0454441638034 439.3673993967348 264.7727171054558 362.1139881625648 284.0908994595868 360.375351750693C303.4090818137179 358.6367153388212 311.1363547553703 425.3713762811669 330.4545371095013 431.31171735506217C349.77271946363237 437.25205842895747 357.49999240528473 391.78671625851007 376.8181747594158 388.8889889053904C396.1363571135468 385.99126155227077 403.8636300551992 415.66398964821605 423.1818124093303 417.4026260600878C442.49999476346136 419.14126247195964 450.2272677051137 392.74296628503953 469.5454500592448 397.23444368237506C488.8636324133758 401.7259210797105 496.59090535502816 444.17762680291344 515.9090877091592 438.9617175672981C535.2272700632902 433.7458083316827 542.9545430049427 376.11001127813273 562.2727253590738 372.1980793514212C581.5909077132048 368.28614742470967 589.3181806548572 419.6048988484588 608.6363630089882 420.1844443190827C627.9545453631192 420.7639897897066 645.3409094818371 384.39751150805495 655.0000006589028 374.97989761041606 " transform="rotate(51, 400, 400)"></path><path d="M159.99998640580617 419.6516767183303C169.09089574892664 408.0607673058517 185.45453256654355 360.3334932544691 203.6363512527845 364.0153115384329C221.81816993902547 367.69712982239673 229.09089741352187 437.59713176165013 247.27271609976282 437.3244044813565C265.4545347860038 437.05167720106294 272.7272622605002 364.3425842747853 290.9090809467412 362.70622059302355C309.0908996329822 361.06985691126187 316.3636271074786 423.87894956288136 334.5454457937195 429.4698588089004C352.72726447996047 435.06076805491955 359.99999195445685 392.2698577768514 378.18181064069785 389.54258497391527C396.36362932693885 386.8153121709791 403.6363568014352 414.74258567304526 421.81817548767617 416.37894935480693C439.9999941739172 418.0153130365686 447.2727216484136 393.16985780182034 465.45454033465455 397.39713064637135C483.6363590208955 401.62440349092236 490.9090864953918 441.5789500539369 509.0909051816329 436.6698590086519C527.2727238678739 431.7607679633668 534.5454513423703 377.51531191296687 552.7272700286113 373.83349362900304C570.9090887148523 370.1516753450393 578.1818161893486 418.45167668503836 596.3636348755895 418.9971312456256C614.5454535618305 419.54258580621286 630.9090903794474 385.3153121293642 639.999999722568 376.4516755198217 " transform="rotate(48, 400, 400)"></path><path d="M174.99998630176896 418.4234392940401C183.52271381094442 407.5569617198414 198.86362332746023 362.8126422966703 215.90907834581117 366.26434693788633C232.95453336416205 369.7160515791024 239.77271537150244 435.24730339715245 256.8181703898533 434.9916215718772C273.86362540820426 434.73593974660196 280.68180741554465 366.57116512821665 297.72726243389553 365.03707417656506C314.7727174522464 363.50298322491346 321.5908994595868 422.3865075858067 338.63635447793774 427.6279850039496C355.6818094962887 432.8694624220925 362.499991503629 392.75298403640363 379.5454465219799 390.196165783651C396.59090154033083 387.63934753089836 403.40908354767123 413.82116643908535 420.4545385660221 415.35525739073694C437.49999358437304 416.88934834238853 444.31817559171344 393.59673405981204 461.3636306100643 397.5598023515786C478.4090856284152 401.5228706433452 485.22726763575554 438.98025804617134 502.2727226541065 434.37798519121657C519.3181776724575 429.77571233626185 526.1363596797978 378.9205972890119 543.1818146981489 375.4688926477958C560.2272697164997 372.0171880065798 567.0454517238401 417.29843926282894 584.0909067421909 417.8098029133795C601.1363617605418 418.32116656393003 616.4772712770576 386.23309749188445 624.999998786233 377.9234381704384 " transform="rotate(45, 400, 400)"></path><path d="M189.99998619773174 417.19521331384175C197.95453187296218 407.053167577923 212.27271408837697 365.2918027829632 228.1818054388378 368.51339378143155C244.09089678929865 371.73498477989983 250.454533329483 432.8974864767466 266.3636246799438 432.6588501064897C282.2727160304047 432.42021373623277 288.63635257058905 368.7997574257398 304.5454439210499 367.36793920419836C320.45453527151074 365.93612098265686 326.81817181169515 420.8940770528239 342.72726316215596 425.7861226430906C358.63635451261683 430.6781682333573 364.99999105280114 393.2361217400477 380.909082403262 390.8497580374786C396.8181737537228 388.4633943349094 403.18181029390723 412.89975864921735 419.09090164436805 414.3315768707588C434.9999929948289 415.76339509230024 441.3636295350133 394.0236217618955 457.27272088547414 397.72248550087767C473.1818122359349 401.4213492398598 479.54544877611926 436.3815774824975 495.4545401265801 432.0861228178731C511.363631477041 427.7906681532487 517.7272680172254 380.32589410914875 533.6363593676863 377.1043031106804C549.5454507181471 373.88271211221206 555.9090872583314 416.1452132847113 571.8181786087922 416.62248602522516C587.727269959253 417.099758765739 602.0454521746678 387.15089429849644 609.9999978498983 379.39521226514677 " transform="rotate(42, 400, 400)"></path><path d="M204.99998609369456 415.9669930556893C212.38634993497993 406.5493791580504 225.68180484929366 367.7709689913021 240.45453253186446 370.76244634702266C255.22726021443526 373.75392370274324 261.1363512874636 430.54767527838663 275.90907897003433 430.3260843631481C290.68180665260513 430.10449344790953 296.59089772563345 371.02835544530893 311.36362540820426 369.69880995387757C326.13635309077506 368.36926446244615 332.0454441638034 419.401652241887 346.8181718463742 423.9442660042775C361.590899528945 428.48687976666804 367.4999906019733 393.7192651657377 382.27271828454406 391.50335601335206C397.04544596711486 389.28744686096644 402.9545370401432 411.97835658139513 417.7272647227139 413.30790207282655C432.49999240528473 414.6374475642579 438.40908347831305 394.4505151860249 453.18181116088385 397.88517437222265C467.9545388434546 401.3198335584203 473.863629916483 433.7829026408697 488.6363575990538 429.79426616657554C503.4090852816246 425.8056296922814 509.3181763546529 381.73119665133146 524.0909040372237 378.7397192956109C538.8636317197945 375.7482419398903 544.7727227928228 414.99199302863957 559.5454504753936 415.4351748591167C574.3181781579643 415.87835668959383 587.613633072278 388.0686968271543 594.9999969135635 380.86699208190106 " transform="rotate(39, 400, 400)"></path><path d="M219.99998598965735 414.73875753874773C226.81816799699772 406.0455754793888 239.0908956102104 370.25011994085185 252.7272596248911 373.0114836538247C266.36362363957187 375.7728473667975 271.8181692454441 428.1978488212376 285.4545332601249 427.9933033610174C299.09089727480557 427.7887579007972 304.5454428806779 373.25693820608893 318.1818068953586 372.02966544476766C331.8181709100393 370.80239268344644 337.27271651591167 417.909212172161 350.9090805305924 422.1023941066753C364.5454445452731 426.29557604118963 369.9999901511454 394.20239333263856 383.6363541658261 392.1569387304364C397.27271818050684 390.11148412823434 402.7272637863791 411.0569392547839 416.36362780105986 412.2842120161052C429.9999918157406 413.51148477742646 435.45453742161294 394.87739335136524 449.0909014362936 398.0478479847785C462.72726545097436 401.2183026181918 468.18181105684664 431.1842125404527 481.8181750715274 427.5023942564889C495.4545390862082 423.8205759725251 500.9090846920804 383.1364839347251 514.5454487067611 380.3751202217523C528.1818127214419 377.61375650877943 533.6363583273142 413.8387575137788 547.272722341995 414.24784843421924C560.9090863566756 414.65693935465964 573.1818139698883 388.98648409702315 579.9999959772287 382.3387566398663 " transform="rotate(36, 400, 400)"></path><path d="M234.99998588562016 413.51051820710893C241.2499860590155 405.54176798602987 252.49998637112708 372.72926707570434 264.99998671791775 375.2605171459295C277.4999870647084 377.7917672161546 282.49998720342467 425.8480185493913 294.99998755021534 425.6605185441895C307.499987897006 425.4730185389876 312.4999880357223 375.4855171521717 324.999988382513 374.36051712096054C337.49998872930365 373.23551708974935 342.49998886801995 416.41676828773774 354.9999892148106 420.2605183943759C367.4999895616013 424.104268501014 372.49998970031754 394.6855176848422 384.9999900471082 392.8105176328236C397.4999903938989 390.93551758080497 402.49999053261513 410.1355181134754 414.9999908794058 411.2605181446866C427.49999122619647 412.38551817589774 432.4999913649127 395.3042677020083 444.9999917117034 398.2105177826371C457.49999205849406 401.116767863266 462.4999921972103 428.58551862533847 474.999992544001 425.210518531705C487.4999928907917 421.8355184380715 492.49999302950795 384.54176740342155 504.9999933762987 382.01051733319645C517.4999937230893 379.47926726297135 522.4999938618056 412.6855181842207 534.9999942085963 413.0605181946245C547.4999945553868 413.4355182050282 558.7499948674986 389.9042675521947 564.9999950408939 383.8105173831343 " transform="rotate(33, 400, 400)"></path><path d="M249.99998578158295 412.2823017636537C255.68180412103325 405.03798338085454 265.9090771320438 375.2084370987405 277.2727138109444 377.5095735262178C288.63635048984503 379.8107099536952 293.18180516140524 423.4982111657286 304.5454418403059 423.3277566155451C315.90907851920645 423.1573020653616 320.4545331907667 377.71411898643805 331.8181698696674 376.691391685337C343.181806548568 375.66866438423597 347.7272612201282 414.92434729149807 359.09089789902885 418.41866557026003C370.4545345779294 421.91298384902194 374.99998924948966 395.1686649252294 386.36362592839026 393.4641194233943C397.72726260729087 391.7595739215592 402.27271727885113 409.21411986035054 413.6363539577517 410.2368471614516C424.99999063665234 411.2595744625527 429.5454453082126 395.73116494083496 440.90908198711315 398.37321046867936C452.27271866601376 401.01525599652376 456.818173337574 425.98684759840785 468.1818100164746 422.91866569510466C479.5454466953753 419.8504837918015 484.09090136693555 385.9470737603015 495.45453804583616 383.6459373328242C506.81817472473676 381.3448009053468 511.363629396297 411.53230174284624 522.7272660751976 411.8732108432133C534.0909027540981 412.21411994358033 544.3181757651087 390.8220738955499 549.999994104559 385.28230101458587 " transform="rotate(30, 400, 400)"></path><path d="M264.99998567754574 411.0540719687581C270.113622183051 404.53418542423884 279.3181678929605 377.68759377033615 289.5454409039711 379.75861655506577C299.77271391498164 381.82963933979545 303.8636231193858 421.14839043062545 314.09089613039635 420.9949813354603C324.31816914140694 420.84157224029514 328.40907834581117 379.94270746926395 338.6363513568217 379.022252898273C348.86362436783224 378.1017983272821 352.95453357223647 413.431912943818 363.181806583247 416.57679939470376C373.4090795942576 419.7216858455895 377.4999887986618 395.6517988141762 387.7272618096723 394.1177078625246C397.95453482068285 392.583616910873 402.04544402508714 408.2927082557852 412.2727170360977 409.21316282677617C422.4999900471082 410.1336173977671 426.59089925151244 396.1580488282212 436.818172262523 398.5358898032812C447.0454452735335 400.9137307783411 451.13635447793774 423.3881632200368 461.3636274889483 420.62679950706394C471.5909004999588 417.86543579409107 475.68180970436305 387.3523667657411 485.90908271537364 385.2813439810115C496.1363557263842 383.2103211962818 500.2272649307884 410.37907195003135 510.4545379417989 410.68589014036166C520.6818109528094 410.992708330692 529.886356662719 391.73986688746464 534.9999931682241 386.754071294597 " transform="rotate(27, 400, 400)"></path><path d="M280.0000008322976 409.8258383591652C284.54545550385785 404.0303836529258 292.7272739126663 380.16674662723455 301.8181832557868 382.00765576921646C310.90909259890725 383.84856491119837 314.54545633615544 418.7985658808251 323.63636567927597 418.66220224067825C332.72727502239644 418.5258386005315 336.36363875964463 382.17129213739264 345.4545481027651 381.3531102965118C354.54545744588563 380.53492845563096 358.1818211831338 411.93947478144065 367.2727305262543 414.7349294044502C376.36363986937477 417.5303840274598 380.00000360662295 396.1349288884257 389.0909129497435 394.77129248695763C398.18182229286396 393.4076560854895 401.81818603011214 407.3712928365226 410.9090953732326 408.18947467740344C420.00000471635315 409.0076565182843 423.63636845360134 396.58492890091014 432.7272777967218 398.6985653231857C441.8181871398423 400.8122017454612 445.45455087709047 420.7894750269685 454.545460220211 418.33492950432594C463.63636956333147 415.8803839816834 467.27273330057966 388.7576559564834 476.3636426437002 386.9167468145015C485.45455198682066 385.07583767251964 489.09091572406885 409.2258383425192 498.18182506718927 409.4985656228128C507.2727344103098 409.7712929031064 515.4545528191182 392.6576560646821 520.0000074906785 388.22583775991086 " transform="rotate(24, 400, 400)"></path><path d="M295.0000007282604 408.5976066569209C298.97727356587563 403.5265837889615 306.136364673583 382.64590139148163 314.09091034881345 384.2566968907158C322.04545602404386 385.8674923899499 325.227274294136 416.4487432383733 333.1818199693664 416.32942505324485C341.1363656445969 416.2101068681164 344.31818391468903 384.3998787128699 352.2727295899195 383.6839696020992C360.2272752651499 382.96806049132846 363.4090935352421 410.447038526412 371.3636392104725 412.8930613215453C379.318184885703 415.33908411667863 382.50000315579507 396.61806087002384 390.45454883102553 395.42487901873926C398.40909450625594 394.23169716745474 401.59091277634815 406.4498793246087 409.54545845157855 407.1657884353794C417.500004126809 407.8816975461501 420.68182239690117 397.01181088094773 428.63636807213163 398.8612427504388C436.590913747362 400.71067461992993 439.77273201745413 418.19078874124875 447.7272776926846 416.0430614089365C455.68182336791506 413.89533407662435 458.8636416380072 390.1629470545744 466.8181873132377 388.5521515553402C474.7727329884681 386.94135605610603 477.95455125856023 408.07260664235565 485.90909693379064 408.3112430126126C493.86364260902104 408.5498793828695 501.02273371672845 393.5754471492482 505.00000655434366 389.69760613257336 " transform="rotate(21, 400, 400)"></path><path d="M310.0000006242232 407.3693825840711C313.4090916278934 403.02279155439163 319.54545543449973 385.1250637851232 326.36363744184007 386.5057456416096C333.18181944918047 387.88642749809605 335.9090922521166 414.09892822531606 342.727274259457 413.99665549520597C349.5454562667973 413.8943827650959 352.2727290697335 386.62847291774176 359.0909110770738 386.0148365370811C365.90909308441417 385.4012001564205 368.6363658873504 408.95460990077777 375.45454789469073 411.0512008680349C382.2727299020311 413.1477918352921 385.00000270496724 397.1012004810165 391.8181847123076 396.0784731799155C398.636366719648 395.05574587881443 401.3636395225841 405.52847344208925 408.1818215299245 406.1421098227499C415.00000353726483 406.7557462034105 417.727276340201 397.4387004903799 424.54545834754134 399.0239278070865C431.3636403548817 400.60915512379313 434.09091315781785 415.5921100849236 440.9090951651582 413.7512009429417C447.7272771724986 411.91029180095984 450.4545499754347 391.5682457820598 457.2727319827751 390.1875639255734C464.0909139901155 388.806882069087 466.8181867930516 406.91938257158665 473.636368800392 407.1239280318069C480.45455080773235 407.3284734920271 486.59091461433866 394.49324586320887 490.00000561800886 391.16938213463044 " transform="rotate(18, 400, 400)"></path><path d="M325.000000520186 406.14115660387273C327.84090968991114 402.5189974124732 332.95454619541647 387.6042242714161 338.63636453486674 388.75479248515484C344.318182874317 389.9053606988935 346.59091021009715 411.7491113049102 352.2727285495475 411.66388402981846C357.95454688899775 411.5786567547267 360.2272742247779 388.8570652152649 365.9090925642282 388.3457015647144C371.5909109036785 387.8343379141639 373.8636382394586 407.46217936779493 379.54545657890895 409.2093385071759C385.2272749183592 410.9564976465569 387.50000225413936 397.5843381846606 393.1818205935897 396.73206543374306C398.86363893303997 395.8797926828255 401.1363662688201 404.6070656522212 406.81818460827037 405.1184293027717C412.5000029477207 405.62979295332224 414.77273028350083 397.8655881924634 420.4545486229511 399.1866109563856C426.13636696240144 400.50763372030775 428.40909429818157 412.9934295212498 434.09091263763185 411.45933856959823C439.7727309770822 409.92524761794664 442.0454583128623 392.9735426021967 447.72727665231264 391.82297438845796C453.4090949917629 390.6724061747193 455.68182232754305 405.766156593469 461.3636406669933 405.93661114365256C467.0454590064436 406.10706569383603 472.15909551194886 395.41104266982086 475.00000468167406 392.64115622933883 " transform="rotate(15, 400, 400)"></path><path d="M339.9999966014515 404.9129210869312C342.27272393723166 402.01519373381154 346.3636331416359 390.08337522096593 350.90908781319615 391.00382979195683C355.45454248475636 391.9242843629478 357.27272435338045 409.3992848477612 361.8181790249407 409.33110302768773C366.363633696501 409.26292120761434 368.181815565125 391.0856479760449 372.7272702366853 390.6765570556045C377.27272490824555 390.2674661351641 379.09090677686964 405.969739298069 383.63636144842985 407.36746660957374C388.1818161199901 408.7651939210785 389.9999979886142 398.0674663515615 394.5454526601745 397.3856481508274C399.0909073317347 396.7038299500934 400.90908920035884 403.6856483256099 405.45454387191904 404.0947392460504C409.9999985434793 404.5038301664908 411.8181804121034 398.29246635780373 416.36363508366367 399.34928456894147C420.9090897552239 400.4061027800792 422.72727162384797 410.3947394208329 427.27272629540823 409.1674666595116C431.8181809669685 407.94019389819033 433.63636283559254 394.37882988559033 438.1818175071528 393.4583753145994C442.72727217871306 392.5379207436084 444.54545404733716 404.6129210786082 449.09090871889737 404.74928471875506C453.63636339045763 404.88564835890185 457.72727259486186 396.3288299396897 459.999999930642 394.11292078730406 " transform="rotate(12, 400, 400)"></path><path d="M354.9999964974144 403.6846893846869C356.70454199924944 401.5113938698472 359.77272390255257 392.56252998521296 363.18181490622277 393.25287091345615C366.59090590989297 393.9432118416994 367.954542311361 407.0494622053094 371.3636333150312 406.9983258402543C374.7727243187014 406.9471894751993 376.1363607201695 393.31423455152225 379.5454517238396 393.00741636119193C382.9545427275098 392.7005981708616 384.31817912897793 404.47730304304025 387.7272701326481 405.52559852666883C391.13636113631827 406.5738940102974 392.4999975377864 398.55059833315966 395.9090885414565 398.0392346826091C399.3181795451267 397.52787103205856 400.6818159465948 402.76423481369596 404.090906950265 403.0710530040263C407.4999979539351 403.3778711943566 408.86363435540324 398.7193483378413 412.27272535907343 399.5119619961946C415.6818163627436 400.30457565454793 417.04545276421163 407.7960531351132 420.45454376788183 406.87559856412224C423.86363477155203 405.9551439931313 425.2272711730201 395.7841209836813 428.6363621766903 395.09378005543806C432.0454531803605 394.4034391271949 433.40908958182854 403.4596893784447 436.81818058549874 403.5619621085548C440.22727158916894 403.6642348386649 443.29545349247206 397.2466210242558 444.99999899430713 395.58468915996656 " transform="rotate(9, 400, 400)"></path><path d="M370.0000002080744 402.45645768244265C371.13636387596443 401.0075940058828 373.1818184781666 395.04168474946 375.4545458139467 395.50191203495547C377.7272731497268 395.96213932045094 378.63636408403886 404.6996395628576 380.909091419819 404.6655486528209C383.1818187555991 404.6314577427842 384.09090968991114 395.5428211269995 386.3636370256913 395.3382756667793C388.6363643614714 395.1337302065591 389.5454552957834 402.9848667880115 391.81818263156356 403.6837304437639C394.0909099673437 404.3825940995163 395.00000090165577 399.0337303147578 397.2727282374359 398.6928212143908C399.545455573216 398.3519121140238 400.45454650752805 401.842821301782 402.7272738433081 402.04736676200224C405.00000117908826 402.2519122222225 405.90909211340033 399.1462303178789 408.18181944918047 399.6746394234478C410.4545467849606 400.20304852901666 411.3636377192726 405.19736684939346 413.63636505505275 404.5837304687328C415.9090923908329 403.9700940880722 416.8181833251449 397.1894120817722 419.09091066092503 396.72918479627674C421.36363799670517 396.26895751078126 422.27272893101724 402.30645767828116 424.5454562667973 402.37463949835455C426.81818360257745 402.44282131842795 428.8636382047796 398.1644121088219 430.0000018726696 397.0564575326291 " transform="rotate(6, 400, 400)"></path><path d="M385.0000001040372 401.22822979489564C385.5681819379822 400.5037979566157 386.5909092390833 397.52084332840434 387.7272729069733 397.75095697115205C388.8636365748634 397.9810706138998 389.31818204201943 402.34982073510315 390.4545457099095 402.3327752800848C391.59090937779956 402.31572982506646 392.0454548449556 397.7714115171741 393.18181851284567 397.66913878706396C394.3181821807357 397.56686605695387 394.7727276478917 401.4924343476801 395.9090913157818 401.8418661755563C397.04545498367185 402.19129800343245 397.5000004508279 399.5168661110532 398.63636411871795 399.3464115608697C399.772727786608 399.1759570106862 400.227273253764 400.9214116045653 401.36363692165406 401.0236843346754C402.50000058954413 401.12595706478555 402.95454605670017 399.5731161126138 404.09090972459023 399.83732066539824C405.2272733924803 400.10152521818264 405.68181885963634 402.59868437837105 406.81818252752635 402.29186618804073C407.95454619541647 401.9850479977104 408.40909166257245 398.5947069945604 409.5454553304625 398.3645933518127C410.6818189983526 398.134479709065 411.1363644655086 401.1532297928149 412.2727281333987 401.1873207028516C413.4090918012887 401.2214116128883 414.4318191023898 399.0822070080853 415.0000009363348 398.5282297199889 " transform="rotate(3, 400, 400)"></path></g></svg>